<?xml version="1.0" encoding="utf-8"?>
<!-- Generator: Adobe Illustrator 15.0.0, SVG Export Plug-In . SVG Version: 6.00 Build 0)  -->
<!DOCTYPE svg PUBLIC "-//W3C//DTD SVG 1.1//EN" "http://www.w3.org/Graphics/SVG/1.1/DTD/svg11.dtd">
<svg version="1.1" id="Layer_1" xmlns="http://www.w3.org/2000/svg" xmlns:xlink="http://www.w3.org/1999/xlink" x="0px" y="0px"
	 width="48px" height="288px" viewBox="0 0 48 288" enable-background="new 0 0 48 288" xml:space="preserve">
<g>
	<g>
		<path fill="#FFFFFF" d="M14.5,63.5c0-0.55,0.45-1,1-1h4c0.55,0,1,0.45,1,1v20c0,0.55-0.45,1-1,1h-4c-0.55,0-1-0.45-1-1V63.5z"/>
	</g>
	<g>
		<path fill="#FFFFFF" d="M26.5,63.5c0-0.55,0.45-1,1-1h4c0.55,0,1,0.45,1,1v20c0,0.55-0.45,1-1,1h-4c-0.55,0-1-0.45-1-1V63.5z"/>
	</g>
</g>
<path fill="#FFFFFF" d="M11.5,15.5c0-1.1,0.803-1.594,1.785-1.097l19.574,9.905c0.98,0.497,0.98,1.31,0,1.806L13.285,36.02
	c-0.981,0.497-1.785,0.003-1.785-1.097V15.5z"/>
<g>
	<g>
		<path fill="#FFFFFF" d="M28.309,165.5l2.205,2.204l2.118-2.116l0.763,0.762l-2.119,2.116l2.226,2.226l-0.812,0.81l-2.226-2.228
			l-2.114,2.121l-0.764-0.764l2.116-2.115l-2.202-2.207L28.309,165.5z"/>
	</g>
	<path fill="#FFFFFF" d="M19.601,164.663c-0.419,0.356-1.212,0.647-1.762,0.647H15.5c-0.55,0-1,0.449-1,1v4.379c0,0.55,0.45,1,1,1
		h2.339c0.55,0,1.343,0.291,1.762,0.646l4.137,3.516c0.419,0.356,0.762,0.197,0.762-0.353v-14c0-0.55-0.343-0.709-0.762-0.353
		L19.601,164.663z"/>
</g>
<g>
	<path fill="#FFFFFF" d="M15.5,117.311c-0.55,0-1,0.45-1,1v4.379c0,0.55,0.45,1,1,1h2.339c0.55,0,1.343,0.291,1.762,0.647
		l4.137,3.516c0.419,0.356,0.762,0.197,0.762-0.353v-14c0-0.55-0.343-0.709-0.762-0.353l-4.137,3.516
		c-0.419,0.356-1.212,0.647-1.762,0.647L15.5,117.311L15.5,117.311z"/>
</g>
<g>
	<path fill="#FFFFFF" d="M30.834,120.529c0,1.95-1.033,3.654-2.579,4.608l0.974,1.245c1.91-1.248,3.178-3.401,3.178-5.854
		c0-2.453-1.268-4.607-3.178-5.854l-0.975,1.245C29.8,116.875,30.834,118.579,30.834,120.529z"/>
	<path fill="#FFFFFF" d="M27.74,120.529c0,0.961-0.584,1.786-1.416,2.14l0.977,1.249c1.189-0.662,1.994-1.931,1.994-3.389
		s-0.805-2.726-1.994-3.39l-0.977,1.251C27.156,118.744,27.74,119.569,27.74,120.529z"/>
</g>
<g>
	<polygon fill="#FFFFFF" points="21.192,264.809 29.5,264.809 26.384,261.689 29.5,258.574 27.421,256.5 24.308,259.611 
		21.192,256.5 	"/>
	<polygon fill="#FFFFFF" points="13.581,274.5 16.693,271.389 19.808,274.5 19.808,266.191 11.5,266.191 14.616,269.311 
		11.5,272.426 	"/>
</g>
<g>
	<path fill="#FFFFFF" d="M26.383,213.695l2.207,2.201c0.501,0.501,0.91,0.329,0.91-0.378v-5.732c0-0.707-0.579-1.286-1.286-1.286
		h-5.736c-0.708,0-0.877,0.409-0.376,0.909l2.206,2.208"/>
	
		<rect x="21.579" y="212.705" transform="matrix(0.7078 -0.7064 0.7064 0.7078 -144.3517 79.3862)" fill="#FFFFFF" width="4.4" height="2.936"/>
</g>
<g>
	<path fill="#FFFFFF" d="M14.618,221.305l-2.208-2.201c-0.5-0.501-0.91-0.329-0.91,0.378v5.732c0,0.707,0.579,1.286,1.286,1.286
		h5.737c0.708,0,0.877-0.409,0.376-0.909l-2.206-2.208"/>
	
		<rect x="15.021" y="219.359" transform="matrix(-0.7077 0.7065 -0.7065 -0.7077 185.4208 364.9432)" fill="#FFFFFF" width="4.4" height="2.936"/>
</g>
</svg>
