<?xml version="1.0" encoding="utf-8"?>
<!-- Generator: Adobe Illustrator 15.0.0, SVG Export Plug-In . SVG Version: 6.00 Build 0)  -->
<!DOCTYPE svg PUBLIC "-//W3C//DTD SVG 1.1//EN" "http://www.w3.org/Graphics/SVG/1.1/DTD/svg11.dtd">
<svg version="1.1" id="Layer_1" xmlns="http://www.w3.org/2000/svg" xmlns:xlink="http://www.w3.org/1999/xlink" x="0px" y="0px"
	 width="48px" height="288px" viewBox="0.5 1.5 48 288" enable-background="new 0.5 1.5 48 288" xml:space="preserve">
<g>
	<g>
		<path fill="#FFFFFF" d="M14.5,64.5c0-0.55,0.45-1,1-1h4c0.55,0,1,0.45,1,1v20c0,0.55-0.45,1-1,1h-4c-0.55,0-1-0.45-1-1V64.5z"/>
	</g>
	<g>
		<path fill="#FFFFFF" d="M26.5,64.5c0-0.55,0.45-1,1-1h4c0.55,0,1,0.45,1,1v20c0,0.55-0.45,1-1,1h-4c-0.55,0-1-0.45-1-1V64.5z"/>
	</g>
</g>
<path fill="#FFFFFF" d="M11.5,15.732c0-1.05,0.8-1.521,1.777-1.047l19.491,9.454c0.976,0.474,0.976,1.25,0,1.723l-19.491,9.454
	c-0.977,0.474-1.777,0.002-1.777-1.047V15.732z"/>
<g>
	<g>
		<path fill="#FFFFFF" d="M28.309,167.045l2.205,2.204l2.118-2.116l0.763,0.762l-2.119,2.116l2.227,2.226l-0.812,0.811l-2.226-2.229
			l-2.114,2.121l-0.764-0.764l2.116-2.115l-2.202-2.207L28.309,167.045z"/>
	</g>
	<path fill="#FFFFFF" d="M19.601,166.208c-0.419,0.356-1.212,0.647-1.762,0.647H15.5c-0.55,0-1,0.448-1,1v4.379c0,0.55,0.45,1,1,1
		h2.339c0.55,0,1.343,0.291,1.762,0.646l4.137,3.517c0.419,0.355,0.762,0.196,0.762-0.354v-14c0-0.55-0.343-0.709-0.762-0.354
		L19.601,166.208z"/>
</g>
<g>
	<path fill="#FFFFFF" d="M15.5,118.854c-0.55,0-1,0.45-1,1v4.379c0,0.55,0.45,1,1,1h2.339c0.55,0,1.343,0.291,1.762,0.647
		l4.137,3.516c0.419,0.356,0.762,0.197,0.762-0.353v-14c0-0.55-0.343-0.709-0.762-0.353l-4.137,3.516
		c-0.419,0.356-1.212,0.647-1.762,0.647L15.5,118.854L15.5,118.854z"/>
</g>
<g>
	<path fill="#FFFFFF" d="M30.834,122.072c0,1.95-1.033,3.654-2.579,4.608l0.974,1.245c1.91-1.248,3.179-3.401,3.179-5.854
		c0-2.453-1.269-4.607-3.179-5.854l-0.975,1.245C29.8,118.418,30.834,120.122,30.834,122.072z"/>
	<path fill="#FFFFFF" d="M27.74,122.072c0,0.961-0.584,1.786-1.416,2.14l0.977,1.249c1.189-0.662,1.994-1.931,1.994-3.389
		s-0.805-2.726-1.994-3.39l-0.977,1.251C27.156,120.287,27.74,121.112,27.74,122.072z"/>
</g>
<g>
	<polygon fill="#FFFFFF" points="21.192,265.809 29.5,265.809 26.384,262.689 29.5,259.574 27.421,257.5 24.309,260.611 
		21.192,257.5 	"/>
	<polygon fill="#FFFFFF" points="13.581,275.5 16.693,272.389 19.808,275.5 19.808,267.191 11.5,267.191 14.616,270.311 
		11.5,273.426 	"/>
</g>
<g>
	<path fill="#FFFFFF" d="M26.383,214.695l2.207,2.201c0.501,0.5,0.91,0.328,0.91-0.379v-5.731c0-0.707-0.579-1.286-1.286-1.286
		h-5.736c-0.708,0-0.877,0.409-0.376,0.909l2.207,2.208"/>
	
		<rect x="21.571" y="213.713" transform="matrix(-0.7079 0.7063 -0.7063 -0.7079 192.5865 350.7133)" fill="#FFFFFF" width="4.399" height="2.936"/>
</g>
<g>
	<path fill="#FFFFFF" d="M14.618,222.305l-2.208-2.201c-0.5-0.5-0.91-0.328-0.91,0.379v5.731c0,0.707,0.579,1.286,1.286,1.286h5.737
		c0.708,0,0.877-0.409,0.376-0.909l-2.206-2.208"/>
	
		<rect x="15.019" y="220.362" transform="matrix(0.7078 -0.7064 0.7064 0.7078 -151.6782 76.9894)" fill="#FFFFFF" width="4.4" height="2.936"/>
</g>
</svg>
