<?xml version="1.0" encoding="utf-8"?>
<!-- Generator: Adobe Illustrator 15.0.0, SVG Export Plug-In . SVG Version: 6.00 Build 0)  -->
<!DOCTYPE svg PUBLIC "-//W3C//DTD SVG 1.1//EN" "http://www.w3.org/Graphics/SVG/1.1/DTD/svg11.dtd">
<svg version="1.1" id="Layer_1" xmlns="http://www.w3.org/2000/svg" xmlns:xlink="http://www.w3.org/1999/xlink" x="0px" y="0px"
	 width="48px" height="288px" viewBox="-0.5 0.5 48 288" enable-background="new -0.5 0.5 48 288" xml:space="preserve">
<g>
	<g>
		<path fill="#FFFFFF" d="M14.5,63.5c0-0.55,0.45-1,1-1h4c0.55,0,1,0.45,1,1v20c0,0.55-0.45,1-1,1h-4c-0.55,0-1-0.45-1-1V63.5z"/>
	</g>
	<g>
		<path fill="#FFFFFF" d="M26.5,63.5c0-0.55,0.45-1,1-1h4c0.55,0,1,0.45,1,1v20c0,0.55-0.45,1-1,1h-4c-0.55,0-1-0.45-1-1V63.5z"/>
	</g>
</g>
<path fill="#FFFFFF" d="M11.5,15.5c0-1.1,0.803-1.594,1.785-1.097l19.574,9.905c0.981,0.497,0.981,1.31,0,1.806L13.285,36.02
	c-0.981,0.497-1.785,0.003-1.785-1.097V15.5z"/>
<g>
	<g>
		<path fill="#FFFFFF" d="M28.309,165.5l2.205,2.204l2.118-2.116l0.763,0.762l-2.119,2.116l2.225,2.226l-0.811,0.809l-2.226-2.227
			l-2.114,2.121l-0.764-0.764l2.116-2.115l-2.202-2.207L28.309,165.5z"/>
	</g>
	<path fill="#FFFFFF" d="M19.601,164.663c-0.419,0.356-1.212,0.647-1.762,0.647H15.5c-0.55,0-1,0.45-1,1v4.379c0,0.55,0.45,1,1,1
		h2.339c0.55,0,1.343,0.291,1.762,0.647l4.137,3.516c0.419,0.356,0.762,0.197,0.762-0.353v-14c0-0.55-0.343-0.709-0.762-0.353
		L19.601,164.663z"/>
</g>
<g>
	<path fill="#FFFFFF" d="M15.5,117.311c-0.55,0-1,0.45-1,1v4.379c0,0.55,0.45,1,1,1h2.339c0.55,0,1.343,0.291,1.762,0.647
		l4.137,3.516c0.419,0.356,0.762,0.197,0.762-0.353v-14c0-0.55-0.343-0.709-0.762-0.353l-4.137,3.516
		c-0.419,0.356-1.212,0.647-1.762,0.647H15.5z"/>
</g>
<g>
	<path fill="#FFFFFF" d="M30.834,120.529c0,1.95-1.033,3.654-2.579,4.608l0.974,1.245c1.91-1.248,3.177-3.401,3.177-5.854
		s-1.267-4.607-3.178-5.854l-0.974,1.245C29.8,116.875,30.834,118.579,30.834,120.529z"/>
	<path fill="#FFFFFF" d="M27.74,120.529c0,0.961-0.584,1.786-1.416,2.14l0.977,1.249c1.189-0.662,1.994-1.931,1.994-3.389
		s-0.805-2.726-1.994-3.39l-0.977,1.251C27.156,118.744,27.74,119.569,27.74,120.529z"/>
</g>
<g>
	<polygon fill="#FFFFFF" points="21.038,264.962 27.5,264.962 25.076,262.536 27.5,260.113 25.883,258.5 23.462,260.92 
		21.038,258.5 	"/>
	<polygon fill="#FFFFFF" points="15.118,272.5 17.539,270.08 19.962,272.5 19.962,266.038 13.5,266.038 15.924,268.464 
		13.5,270.887 	"/>
</g>
<g>
	<path fill="#FFFFFF" d="M25.075,214.541l1.717,1.712c0.39,0.389,0.708,0.256,0.708-0.294V211.5c0-0.55-0.45-1-1-1h-4.462
		c-0.55,0-0.682,0.318-0.293,0.707l1.716,1.718"/>
	
		<rect x="21.331" y="213.776" transform="matrix(-0.7077 0.7065 -0.7065 -0.7077 191.1967 350.731)" fill="#FFFFFF" width="3.422" height="2.284"/>
</g>
<g>
	<path fill="#FFFFFF" d="M15.925,220.459l-1.717-1.712c-0.389-0.389-0.708-0.256-0.708,0.294v4.459c0,0.55,0.45,1,1,1h4.462
		c0.55,0,0.682-0.318,0.293-0.707l-1.716-1.718"/>
	
		<rect x="16.246" y="218.939" transform="matrix(0.7077 -0.7065 0.7065 0.7077 -150.2461 77.0225)" fill="#FFFFFF" width="3.422" height="2.284"/>
</g>
</svg>
