<?xml version="1.0" encoding="utf-8"?>
<!-- Generator: Adobe Illustrator 15.0.0, SVG Export Plug-In . SVG Version: 6.00 Build 0)  -->
<!DOCTYPE svg PUBLIC "-//W3C//DTD SVG 1.1//EN" "http://www.w3.org/Graphics/SVG/1.1/DTD/svg11.dtd">
<svg version="1.1" id="Layer_1" xmlns="http://www.w3.org/2000/svg" xmlns:xlink="http://www.w3.org/1999/xlink" x="0px" y="0px"
	 width="48px" height="288px" viewBox="0.5 1.5 48 288" enable-background="new 0.5 1.5 48 288" xml:space="preserve">
<g>
	<g>
		<path fill="#FFFFFF" d="M15,65c0-0.55,0.45-1,1-1h4c0.55,0,1,0.45,1,1v20c0,0.55-0.45,1-1,1h-4c-0.55,0-1-0.45-1-1V65z"/>
	</g>
	<g>
		<path fill="#FFFFFF" d="M27,65c0-0.55,0.45-1,1-1h4c0.55,0,1,0.45,1,1v20c0,0.55-0.45,1-1,1h-4c-0.55,0-1-0.45-1-1V65z"/>
	</g>
</g>
<path fill="#FFFFFF" d="M12,17c0-1.1,0.803-1.594,1.785-1.097l19.574,9.905c0.979,0.497,0.979,1.31,0,1.806L13.785,37.52
	C12.804,38.017,12,37.523,12,36.423V17z"/>
<g>
	<g>
		<path fill="#FFFFFF" d="M28.809,167l2.205,2.204l2.118-2.116l0.763,0.762l-2.119,2.116l2.227,2.226l-0.812,0.811l-2.226-2.229
			l-2.114,2.121l-0.764-0.764l2.116-2.115L28,167.809L28.809,167z"/>
	</g>
	<path fill="#FFFFFF" d="M20.101,166.163c-0.419,0.356-1.212,0.647-1.762,0.647H16c-0.55,0-1,0.448-1,1v4.379c0,0.55,0.45,1,1,1
		h2.339c0.55,0,1.343,0.291,1.762,0.646l4.137,3.517c0.419,0.355,0.762,0.196,0.762-0.354v-14c0-0.55-0.343-0.709-0.762-0.354
		L20.101,166.163z"/>
</g>
<g>
	<path fill="#FFFFFF" d="M16,118.811c-0.55,0-1,0.45-1,1v4.379c0,0.55,0.45,1,1,1h2.339c0.55,0,1.343,0.291,1.762,0.647l4.137,3.516
		C24.657,129.709,25,129.55,25,129v-14c0-0.55-0.343-0.709-0.762-0.353l-4.137,3.516c-0.419,0.356-1.212,0.647-1.762,0.647
		L16,118.811L16,118.811z"/>
</g>
<g>
	<path fill="#FFFFFF" d="M31.334,122.029c0,1.95-1.033,3.654-2.579,4.608l0.974,1.245c1.91-1.248,3.179-3.401,3.179-5.854
		c0-2.453-1.269-4.607-3.179-5.854l-0.975,1.245C30.3,118.375,31.334,120.079,31.334,122.029z"/>
	<path fill="#FFFFFF" d="M28.24,122.029c0,0.961-0.584,1.786-1.416,2.14l0.977,1.249c1.189-0.662,1.994-1.931,1.994-3.389
		s-0.805-2.726-1.994-3.39l-0.977,1.251C27.656,120.244,28.24,121.069,28.24,122.029z"/>
</g>
<g>
	<polygon fill="#FFFFFF" points="21.692,266.309 30,266.309 26.884,263.189 30,260.074 27.921,258 24.809,261.111 21.692,258 	"/>
	<polygon fill="#FFFFFF" points="14.081,276 17.193,272.889 20.308,276 20.308,267.691 12,267.691 15.116,270.811 12,273.926 	"/>
</g>
<g>
	<path fill="#FFFFFF" d="M26.883,215.195l2.207,2.201c0.501,0.5,0.91,0.328,0.91-0.379v-5.731c0-0.707-0.579-1.286-1.286-1.286
		h-5.736c-0.708,0-0.877,0.409-0.376,0.909l2.207,2.208"/>
	
		<rect x="22.071" y="214.213" transform="matrix(-0.7079 0.7063 -0.7063 -0.7079 193.7936 351.2141)" fill="#FFFFFF" width="4.399" height="2.936"/>
</g>
<g>
	<path fill="#FFFFFF" d="M15.118,222.805l-2.208-2.201c-0.5-0.5-0.91-0.328-0.91,0.379v5.731c0,0.707,0.579,1.286,1.286,1.286h5.737
		c0.708,0,0.877-0.409,0.376-0.909l-2.206-2.208"/>
	
		<rect x="15.519" y="220.862" transform="matrix(0.7078 -0.7064 0.7064 0.7078 -151.8853 77.4887)" fill="#FFFFFF" width="4.4" height="2.936"/>
</g>
</svg>
