<?xml version="1.0" encoding="utf-8"?>
<!-- Generator: Adobe Illustrator 15.0.0, SVG Export Plug-In . SVG Version: 6.00 Build 0)  -->
<!DOCTYPE svg PUBLIC "-//W3C//DTD SVG 1.1//EN" "http://www.w3.org/Graphics/SVG/1.1/DTD/svg11.dtd">
<svg version="1.1" id="Layer_1" xmlns="http://www.w3.org/2000/svg" xmlns:xlink="http://www.w3.org/1999/xlink" x="0px" y="0px"
	 width="48px" height="288px" viewBox="-1.5 -0.5 48 288" enable-background="new -1.5 -0.5 48 288" xml:space="preserve">
<g>
	<g>
		<path fill="#FFFFFF" d="M13.5,62.5c0-0.55,0.45-1,1-1h4c0.55,0,1,0.45,1,1v20c0,0.55-0.45,1-1,1h-4c-0.55,0-1-0.45-1-1V62.5z"/>
	</g>
	<g>
		<path fill="#FFFFFF" d="M25.5,62.5c0-0.55,0.45-1,1-1h4c0.55,0,1,0.45,1,1v20c0,0.55-0.45,1-1,1h-4c-0.55,0-1-0.45-1-1V62.5z"/>
	</g>
</g>
<path fill="#FFFFFF" d="M10.5,14.731c0-1.05,0.8-1.521,1.777-1.047l19.491,9.454c0.977,0.474,0.977,1.25,0,1.723l-19.491,9.454
	C11.3,34.79,10.5,34.317,10.5,33.269V14.731z"/>
<g>
	<g>
		<path fill="#FFFFFF" d="M27.309,165.045l2.205,2.204l2.118-2.116l0.763,0.762l-2.119,2.116l2.228,2.226l-0.812,0.812l-2.227-2.229
			l-2.113,2.121l-0.765-0.764l2.116-2.115l-2.202-2.207L27.309,165.045z"/>
	</g>
	<path fill="#FFFFFF" d="M18.601,164.208c-0.419,0.356-1.212,0.647-1.762,0.647H14.5c-0.55,0-1,0.447-1,1v4.379c0,0.55,0.45,1,1,1
		h2.339c0.55,0,1.343,0.291,1.762,0.646l4.137,3.517c0.419,0.355,0.762,0.196,0.762-0.354v-14c0-0.55-0.343-0.709-0.762-0.354
		L18.601,164.208z"/>
</g>
<g>
	<path fill="#FFFFFF" d="M14.5,116.854c-0.55,0-1,0.45-1,1v4.379c0,0.55,0.45,1,1,1h2.339c0.55,0,1.343,0.291,1.762,0.647
		l4.137,3.516c0.419,0.356,0.762,0.197,0.762-0.353v-14c0-0.55-0.343-0.709-0.762-0.353l-4.137,3.516
		c-0.419,0.356-1.212,0.647-1.762,0.647L14.5,116.854L14.5,116.854z"/>
</g>
<g>
	<path fill="#FFFFFF" d="M29.834,120.072c0,1.95-1.033,3.654-2.579,4.608l0.974,1.245c1.91-1.248,3.18-3.401,3.18-5.854
		c0-2.453-1.27-4.607-3.18-5.854l-0.975,1.245C28.8,116.418,29.834,118.122,29.834,120.072z"/>
	<path fill="#FFFFFF" d="M26.74,120.072c0,0.961-0.584,1.786-1.416,2.14l0.977,1.249c1.189-0.662,1.994-1.931,1.994-3.389
		s-0.805-2.726-1.994-3.39l-0.977,1.251C26.156,118.287,26.74,119.112,26.74,120.072z"/>
</g>
<g>
	<polygon fill="#FFFFFF" points="22.115,263.885 29.5,263.885 26.729,261.113 29.5,258.344 27.651,256.5 24.887,259.266 
		22.115,256.5 	"/>
	<polygon fill="#FFFFFF" points="15.35,272.5 18.116,269.734 20.885,272.5 20.885,265.115 13.5,265.115 16.27,267.887 13.5,270.656 
			"/>
</g>
<g>
	<path fill="#FFFFFF" d="M26.729,213.117l1.963,1.957c0.444,0.445,0.809,0.293,0.809-0.336v-5.095c0-0.629-0.515-1.144-1.144-1.144
		h-5.099c-0.629,0-0.779,0.364-0.334,0.808l1.963,1.964"/>
	
		<rect x="22.457" y="212.24" transform="matrix(0.7079 -0.7064 0.7064 0.7079 -143.7069 79.6302)" fill="#FFFFFF" width="3.911" height="2.611"/>
</g>
<g>
	<path fill="#FFFFFF" d="M16.271,219.883l-1.963-1.957c-0.444-0.445-0.809-0.293-0.809,0.336v5.095c0,0.629,0.515,1.144,1.144,1.144
		h5.099c0.629,0,0.779-0.364,0.334-0.808l-1.961-1.964"/>
	
		<rect x="16.62" y="218.162" transform="matrix(-0.708 0.7062 -0.7062 -0.708 186.7203 361.7247)" fill="#FFFFFF" width="3.91" height="2.608"/>
</g>
</svg>
